<?xml version="1.0" encoding="utf-8"?>
<!-- Generator: Adobe Illustrator 21.0.0, SVG Export Plug-In . SVG Version: 6.00 Build 0)  -->
<svg version="1.1" id="Capa_1" xmlns="http://www.w3.org/2000/svg" xmlns:xlink="http://www.w3.org/1999/xlink" x="0px" y="0px"
	 width="992.1px" height="992.1px" viewBox="0 0 992.1 992.1" style="enable-background:new 0 0 992.1 992.1;" xml:space="preserve"
	>
<style type="text/css">
	.st0{fill:none;stroke:#FFFFFF;stroke-width:30;stroke-linejoin:round;stroke-miterlimit:10;}
	.st1{fill:none;stroke:#FFFFFF;stroke-width:30;stroke-miterlimit:10;}
	.st2{fill:none;stroke:#1D1D1B;stroke-width:9.9402;stroke-miterlimit:10;}
	.st3{fill:#1D1D1B;}
	.st4{fill:none;stroke:#1D1D1B;stroke-width:10;stroke-miterlimit:10;}
	.st5{fill:#FFFFFF;}
	.st6{font-family:'Sen-ExtraBold';}
	.st7{font-size:200px;}
</style>
<path class="st0" d="M194.8,383.8c0,0,279-355.6,602.5,0C797.3,383.8,530.6,758,194.8,383.8z"/>
<circle class="st1" cx="497.8" cy="387.7" r="162.4"/>
<circle class="st2" cx="1147.5" cy="407.6" r="53"/>
<g>
	<polygon class="st3" points="1143.3,377.2 1163.6,377.2 1157.7,396.6 1168.4,396.6 1137.9,443.5 1144.4,410.3 1133,410.3 	"/>
</g>
<path class="st4" d="M1048.7,406.3c0,0,91-116,196.5,0C1245.2,406.3,1158.2,528.4,1048.7,406.3z"/>
<g>
	<path class="st5" d="M468.1,501.3c-0.4,0-0.9-0.1-1.3-0.3c-1.6-0.6-2.4-2.3-2.1-3.9l19.2-97.5h-30.6c-1.1,0-2.2-0.5-2.8-1.4
		c-0.7-0.9-0.9-2.1-0.5-3.1l31.6-101.7c0.5-1.5,1.8-2.5,3.3-2.5h62c1.1,0,2.2,0.5,2.8,1.4c0.7,0.9,0.9,2,0.5,3.1l-16.7,54.9h28.2
		c1.3,0,2.5,0.7,3.1,1.8c0.6,1.1,0.6,2.5-0.1,3.6l-93.6,144C470.4,500.7,469.3,501.3,468.1,501.3z"/>
	<path class="st5" d="M546.9,294.3l-18.1,59.4h32.9l-93.6,144l20-101.7h-34.9l31.6-101.7H546.9 M546.9,287.3h-62
		c-3.1,0-5.8,2-6.7,4.9L446.6,394c-0.7,2.1-0.3,4.4,1,6.2c1.3,1.8,3.4,2.9,5.6,2.9h26.4l-18.4,93.4c-0.6,3.3,1.1,6.6,4.2,7.8
		c0.9,0.3,1.7,0.5,2.6,0.5c2.3,0,4.5-1.1,5.9-3.2l93.6-144c1.4-2.2,1.5-4.9,0.3-7.2c-1.2-2.3-3.6-3.7-6.2-3.7h-23.5l15.3-50.4
		c0.6-2.1,0.2-4.4-1.1-6.2C551.2,288.4,549.1,287.3,546.9,287.3L546.9,287.3z"/>
</g>
<circle class="st2" cx="1147.5" cy="230.4" r="53"/>
<g>
	<path class="st3" d="M1163.6,200l-5.9,19.4h10.7l-30.5,47l6.5-33.2H1133l10.3-33.2H1163.6 M1168.4,219.3L1168.4,219.3 M1163.6,195
		h-20.2c-2.2,0-4.1,1.4-4.8,3.5l-10.3,33.2c-0.5,1.5-0.2,3.2,0.7,4.4c0.9,1.3,2.4,2,4,2h5.3l-5.4,27.2c-0.5,2.4,0.8,4.7,3,5.6
		c0.6,0.2,1.2,0.4,1.9,0.4c1.7,0,3.2-0.8,4.2-2.3l30.5-46.9c0.6-0.8,0.9-1.8,0.9-2.8c0-2.8-2.2-5-5-5h0h-4l3.9-12.9
		c0.5-1.5,0.2-3.2-0.8-4.4C1166.6,195.7,1165.1,195,1163.6,195L1163.6,195z M1163.6,205L1163.6,205L1163.6,205L1163.6,205z"/>
</g>
<path class="st4" d="M1048.7,229.1c0,0,91-116,196.5,0C1245.2,229.1,1158.2,351.2,1048.7,229.1z"/>
<text transform="matrix(1 0 0 1 60.6104 780.7551)" class="st5 st6 st7">MORELO</text>
</svg>
